<?xml version="1.0" encoding="utf-8"?>
<!-- Generator: Adobe Illustrator 22.1.0, SVG Export Plug-In . SVG Version: 6.00 Build 0)  -->
<svg version="1.1" id="Vrstva_1" xmlns="http://www.w3.org/2000/svg" xmlns:xlink="http://www.w3.org/1999/xlink" x="0px" y="0px"
	 viewBox="0 0 155.9 155.9" style="enable-background:new 0 0 155.9 155.9;" xml:space="preserve">
<style type="text/css">
	.st0{fill:#040D19;}
</style>
<g>
	<path class="st0" d="M135.6,78c0,31.8-25.9,57.6-57.6,57.6S20.3,109.7,20.3,78c0-31.8,25.9-57.6,57.6-57.6S135.6,46.2,135.6,78
		 M148.8,78C148.8,38.9,117,7.1,78,7.1C38.9,7.1,7.1,38.9,7.1,78c0,39.1,31.8,70.9,70.9,70.9C117,148.8,148.8,117,148.8,78"/>
	<path class="st0" d="M79.6,76.1c6.5,8.4,12.4,16.6,16.1,26.1c2.9,7.5,0.6,15-5.7,19.7c-6.1,4.5-14.5,4.5-20.6,0
		c-6.3-4.7-8.6-12.3-5.7-19.7C67.3,92.8,73.3,84.8,79.6,76.1z M77.9,120c2.2,0.2,3.7-0.1,4.2-1.9c0.5-1.9-0.6-3-2.4-3.2
		c-3.9-0.5-6.2-2.6-6.7-6.5c-0.2-1.8-1.2-2.9-3.1-2.6c-1.8,0.3-2.2,1.9-2.2,3.6C67.8,114.3,73.2,119.8,77.9,120z"/>
	<path class="st0" d="M53.1,48.8c5.5,7.1,10.4,14,13.6,22c2.5,6.3,0.5,12.6-4.8,16.6c-5.2,3.8-12.3,3.8-17.4,0
		c-5.3-3.9-7.2-10.3-4.8-16.6C42.7,62.9,47.8,56.2,53.1,48.8z M51.7,85.8c1.8,0.2,3.1-0.1,3.5-1.6c0.4-1.6-0.5-2.5-2-2.7
		C49.9,81,48,79.3,47.6,76c-0.2-1.5-1-2.5-2.6-2.2c-1.5,0.3-1.9,1.6-1.9,3C43.2,81,47.8,85.6,51.7,85.8z"/>
	<path class="st0" d="M98.7,35.4c5.5,7.1,10.4,14,13.6,22c2.5,6.3,0.5,12.6-4.8,16.6c-5.2,3.8-12.3,3.8-17.4,0
		c-5.3-3.9-7.2-10.3-4.8-16.6C88.3,49.5,93.4,42.8,98.7,35.4z M97.3,72.4c1.8,0.2,3.1-0.1,3.5-1.6c0.4-1.6-0.5-2.5-2-2.7
		c-3.3-0.4-5.2-2.2-5.6-5.5c-0.2-1.5-1-2.5-2.6-2.2c-1.5,0.3-1.9,1.6-1.9,3C88.8,67.6,93.3,72.2,97.3,72.4z"/>
</g>
</svg>
